HIERARCHY
ROOT hip
{
	OFFSET 0.000000 0.000000 0.000000 
	CHANNELS 6 Xposition Yposition Zposition Xrotation Zrotation Yrotation
	JOINT abdomen
	{
		OFFSET 0.000000 3.402643 0.000000 
		CHANNELS 3 Xrotation Zrotation Yrotation
		JOINT chest
		{
			OFFSET 0.000000 8.438565 -0.680529 
			CHANNELS 3 Xrotation Zrotation Yrotation
			JOINT neck
			{
				OFFSET 0.000000 10.207942 -0.272212 
				CHANNELS 3 Xrotation Zrotation Yrotation
				JOINT head
				{
					OFFSET 0.000000 3.130431 0.000000 
					CHANNELS 3 Xrotation Zrotation Yrotation
					End Site
					{
						OFFSET 0.000000 3.130435 0.000000 
					}
				}
			}
			JOINT lCollar
			{
				OFFSET 3.470700 6.669187 -0.816635 
				CHANNELS 3 Yrotation Zrotation Xrotation
				JOINT lShldr
				{
					OFFSET 3.198488 0.000000 0.000000 
					CHANNELS 3 Zrotation Yrotation Xrotation
					JOINT lForeArm
					{
						OFFSET 10.139888 0.000000 0.000000 
						CHANNELS 3 Yrotation Zrotation Xrotation
						JOINT lHand
						{
							OFFSET 8.370511 0.000000 0.000000 
							CHANNELS 3 Zrotation Yrotation Xrotation
							End Site
							{
								OFFSET 4.083176 0.000000 0.000000 
							}
						}
					}
				}
			}
			JOINT rCollar
			{
				OFFSET -3.470700 6.669187 -0.816635 
				CHANNELS 3 Yrotation Zrotation Xrotation
				JOINT rShldr
				{
					OFFSET -3.198488 0.000000 0.000000 
					CHANNELS 3 Zrotation Yrotation Xrotation
					JOINT rForeArm
					{
						OFFSET -10.139888 0.000000 0.000000 
						CHANNELS 3 Yrotation Zrotation Xrotation
						JOINT rHand
						{
							OFFSET -8.370511 0.000000 0.000000 
							CHANNELS 3 Zrotation Yrotation Xrotation
							End Site
							{
								OFFSET -4.083176 0.000000 0.000000 
							}
						}
					}
				}
			}
		}
	}
	JOINT lThigh
	{
		OFFSET 5.308129 -1.633274 1.361059 
		CHANNELS 3 Xrotation Zrotation Yrotation
		JOINT lShin
		{
			OFFSET -2.041588 -20.007561 0.000000 
			CHANNELS 3 Xrotation Zrotation Yrotation
			JOINT lFoot
			{
				OFFSET 0.000000 -19.190928 -1.224953 
				CHANNELS 3 Xrotation Yrotation Zrotation
				End Site
				{
					OFFSET 0.000000 -2.449906 4.627600 
				}
			}
		}
	}
	JOINT rThigh
	{
		OFFSET -5.308129 -1.633274 1.361059 
		CHANNELS 3 Xrotation Zrotation Yrotation
		JOINT rShin
		{
			OFFSET 2.041588 -20.007561 0.000000 
			CHANNELS 3 Xrotation Zrotation Yrotation
			JOINT rFoot
			{
				OFFSET 0.000000 -19.190928 -1.224953 
				CHANNELS 3 Xrotation Yrotation Zrotation
				End Site
				{
					OFFSET 0.000000 -2.449906 4.627600 
				}
			}
		}
	}
}
MOTION
Frames: 6
Frame Time: 0.016667
0.033640 47.760887 2.990048 -6.946724 -2.321539 -5.922984 27.381546 -1.619598 2.461886 -21.713427 -3.168712 3.256693 -2.834499 -4.958116 -16.352169 -1.426948 0.669124 -17.891874 0.410301 0.849540 -0.009909 -80.021446 12.784410 -35.894306 -6.638420 3.418681 41.242302 -13.447243 19.902603 -4.659489 12.588063 1.033028 -0.009705 81.846710 -2.804121 -18.359426 60.565704 -1.279098 13.908134 11.824916 -6.843252 -1.439085 -19.303589 6.366320 -3.004732 26.319736 -1.280214 -2.360610 1.495391 -7.638233 -12.060969 13.508453 -0.106714 3.245279 42.213043 0.511472 3.149464 -19.235409 -6.659200 9.834827 
0.239271 48.149380 4.961129 -6.198431 -1.970449 -6.302812 26.720720 -1.560643 2.793793 -21.999777 -3.742814 3.552013 -2.442703 -5.558968 -17.291018 -1.813767 1.154093 -19.017534 0.283331 0.751905 -0.009893 -79.488258 11.278851 -35.653923 -7.840496 3.582052 43.623867 -13.284164 19.496174 -4.504415 12.041016 1.162109 0.000000 83.054291 -4.140254 -18.537024 58.748142 -1.175036 12.667403 11.361716 -8.282161 -1.668603 -18.020905 5.789115 -2.220737 27.445263 -1.231500 -2.407500 -0.210754 -7.726246 -12.296780 9.870026 -1.014817 1.135609 48.756901 0.139099 3.455287 -9.299800 -7.083369 10.864655 
0.419621 48.535816 6.808054 -5.313458 -1.793939 -6.800254 26.118063 -1.316826 2.764288 -22.282351 -3.860260 3.435070 -2.471452 -6.098627 -17.622585 -2.047200 1.261503 -19.457895 0.390712 0.507746 -0.009852 -78.964722 10.051776 -25.444967 -9.697763 3.036127 35.702080 -12.361015 19.867451 -4.266181 12.138850 1.072165 -0.009728 83.904160 -5.543174 -17.944462 55.935699 -1.221512 13.077858 11.771060 -9.619586 -2.005229 -16.563795 5.426798 -1.403893 27.777189 -1.236731 -2.425655 -2.026589 -7.708059 -12.549460 5.128335 -1.647740 -0.654285 55.173645 -0.234768 3.651089 -0.552619 -8.972638 11.906615 
0.564780 48.884201 8.615262 -4.560142 -1.685534 -7.278833 25.674812 -1.082928 2.529583 -22.508238 -3.734700 3.121334 -2.631793 -6.532156 -17.746500 -2.259187 1.186547 -19.633221 0.253994 0.517535 -0.009853 -78.478333 8.874008 -15.312823 -12.637094 2.326671 26.182196 -11.249748 19.903486 -3.879979 11.904459 0.964782 -0.009719 84.330330 -7.073227 -16.210358 52.303459 -1.456579 15.919221 13.656253 -10.835134 -2.616178 -14.829232 5.105563 -0.644752 27.649986 -1.250944 -2.412640 -3.916880 -7.664295 -12.792086 0.457788 -2.181026 -2.322803 60.543236 -0.576594 3.831666 2.545850 -11.425656 12.423608 
0.638852 49.166027 10.353110 -3.998741 -1.693472 -7.728141 25.487362 -0.868615 1.992402 -22.660917 -3.209782 2.523231 -2.955400 -6.742611 -17.597065 -2.480234 0.801105 -19.454973 0.097758 0.595686 -0.009867 -77.808533 7.477262 -7.508611 -16.255379 1.697462 18.294973 -11.069251 18.952438 -3.643440 11.718908 0.945282 -0.009722 84.351097 -8.602417 -14.167371 48.090897 -1.911233 21.216038 16.515514 -11.348518 -3.350694 -12.937342 4.901341 0.046028 27.406080 -1.260677 -2.382863 -6.046680 -7.389946 -13.046269 -4.340741 -2.525947 -3.921548 64.411812 -0.820248 3.941203 2.036703 -13.708827 12.305968 
0.615872 49.357815 12.042219 -3.729869 -1.788630 -8.099962 25.578295 -0.810360 1.230484 -22.770664 -2.440244 1.768885 -3.249090 -6.665971 -17.397509 -2.804820 0.202966 -19.140739 0.029433 0.800776 -0.009901 -76.850914 5.858029 -1.561185 -20.337662 1.184560 12.299662 -11.357364 17.531441 -3.469010 11.533380 1.052735 -0.009746 84.300903 -10.116409 -12.617938 43.498936 -2.503303 28.546423 18.597857 -11.444824 -3.831079 -10.885631 4.754179 0.606944 27.347366 -1.236707 -2.403669 -8.197608 -6.817504 -13.255297 -8.834643 -2.664861 -5.521592 66.215172 -0.947053 3.957234 -0.567586 -14.867993 11.647030 
